<?xml version="1.0" encoding="utf-8"?>
<!-- Generator: Adobe Illustrator 27.5.0, SVG Export Plug-In . SVG Version: 6.00 Build 0)  -->
<svg version="1.1" xmlns="http://www.w3.org/2000/svg" xmlns:xlink="http://www.w3.org/1999/xlink" x="0px" y="0px"
	 viewBox="0 0 500 500" style="enable-background:new 0 0 500 500;" xml:space="preserve">
<g id="BACKGROUND">
	<rect style="fill:#F1EDE5;" width="500" height="500"/>
</g>
<g id="OBJECTS">
	<g>
		<g>
			<g>
				<g>
					<path style="fill:#C9C5BD;" d="M431.205,376.457v70.34c0,3.31-2.68,6-6,6H66.545c-3.32,0-6-2.69-6-6v-70.34c0-3.31,2.68-6,6-6
						h358.66C428.525,370.457,431.205,373.147,431.205,376.457z"/>
				</g>
			</g>
		</g>
		<g>
			<g>
				<g>
					<g>
						<path style="fill:#F3BD36;" d="M439.455,368.207v70.34c0,3.31-2.68,6-6,6H74.795c-3.32,0-6-2.69-6-6v-70.34c0-3.31,2.68-6,6-6
							h358.66C436.775,362.207,439.455,364.897,439.455,368.207z"/>
					</g>
				</g>
			</g>
			<path style="opacity:0.7;fill:#E0682B;" d="M75.385,368.837v72.67c-1.98,0-3.59-1.61-3.59-3.59v-69.08H75.385z"/>
			<g>
				<path style="opacity:0.7;fill:#E0682B;" d="M71.795,437.917L71.795,437.917c0,1.983,1.607,3.59,3.59,3.59h357.48
					c1.983,0,3.59-1.607,3.59-3.59l0,0h-82.16v-69h-2.84v69H71.795z"/>
				<g>
					<g>
						<g>
							<path style="fill:#FFEF51;" d="M71.795,368.837L71.795,368.837h276.83v69.08h2.83v-69.08h85l0,0
								c0-1.983-1.607-3.59-3.59-3.59H75.385C73.402,365.247,71.795,366.854,71.795,368.837z"/>
						</g>
					</g>
				</g>
				<g>
					<path style="opacity:0.7;fill:#E0682B;" d="M71.795,437.917L71.795,437.917c0,1.983,1.607,3.59,3.59,3.59h275.9v-3.59H71.795z"
						/>
				</g>
			</g>
			<path style="fill:#FFEF51;" d="M439.455,368.207v70.34c0,3.31-2.68,6-6,6h-76.46l-26.3-26.3c-8.22-8.21-8.22-21.53,0-29.75
				l26.29-26.29h76.47C436.775,362.207,439.455,364.897,439.455,368.207z"/>
			<path style="fill:#B0343F;" d="M439.455,368.207v70.34c0,3.31-2.68,6-6,6h-72.46l-26.3-26.3c-8.22-8.21-8.22-21.53,0-29.75
				l26.29-26.29h72.47C436.775,362.207,439.455,364.897,439.455,368.207z"/>
			<path style="fill:#E0682B;" d="M435.405,366.297c-0.65-0.65-1.55-1.05-2.54-1.05h-72.42l-3.59,3.59h76.01v72.67
				c1.983,0,3.59-1.607,3.59-3.59v-69.08C436.455,367.847,436.055,366.947,435.405,366.297z"/>
		</g>
		<g>
			<g>
				<g>
					<path style="fill:#F3BD36;" d="M390.031,382.18h-0.004c-5.687,0-10.296,4.609-10.296,10.3v4.152h3.977v-4.152
						c0-3.488,2.835-6.323,6.323-6.323c3.484,0,6.319,2.835,6.319,6.323v4.152h3.977v-4.152
						C400.327,386.789,395.718,382.18,390.031,382.18z"/>
				</g>
			</g>
			<g>
				<path style="fill:#F3BD36;" d="M401.957,396.632h-23.861c-0.942,0-1.706,0.764-1.706,1.706v19.196
					c0,0.942,0.764,1.706,1.706,1.706h23.865c0.942,0,1.706-0.764,1.706-1.706v-19.192
					C403.667,397.397,402.902,396.632,401.957,396.632z M392.091,408.479v4.048c0,1.138-0.922,2.06-2.06,2.06h-0.004
					c-1.138,0-2.06-0.922-2.06-2.06v-4.048c-1.136-0.79-1.801-2.221-1.47-3.771c0.284-1.332,1.355-2.423,2.683-2.726
					c2.366-0.54,4.466,1.243,4.466,3.522C393.646,406.737,393.029,407.827,392.091,408.479z"/>
			</g>
		</g>
	</g>
	<g>
		<g>
			<g>
				<g>
					<path style="fill:#C9C5BD;" d="M431.205,271.456v70.34c0,3.31-2.68,6-6,6H66.545c-3.32,0-6-2.69-6-6v-70.34c0-3.31,2.68-6,6-6
						h358.66C428.525,265.456,431.205,268.146,431.205,271.456z"/>
				</g>
			</g>
		</g>
		<g>
			<g>
				<g>
					<g>
						<path style="fill:#F3BD36;" d="M439.455,263.206v70.34c0,3.31-2.68,6-6,6H74.795c-3.32,0-6-2.69-6-6v-70.34c0-3.31,2.68-6,6-6
							h358.66C436.775,257.206,439.455,259.896,439.455,263.206z"/>
					</g>
				</g>
			</g>
			<path style="opacity:0.7;fill:#E0682B;" d="M75.385,263.836v72.67c-1.98,0-3.59-1.61-3.59-3.59v-69.08H75.385z"/>
			<g>
				<path style="opacity:0.7;fill:#E0682B;" d="M71.795,332.916L71.795,332.916c0,1.983,1.607,3.59,3.59,3.59h357.48
					c1.983,0,3.59-1.607,3.59-3.59l0,0h-82.16v-69h-2.84v69H71.795z"/>
				<g>
					<g>
						<g>
							<path style="fill:#FFEF51;" d="M71.795,263.836L71.795,263.836h276.83v69.08h2.83v-69.08h85l0,0
								c0-1.983-1.607-3.59-3.59-3.59H75.385C73.402,260.246,71.795,261.853,71.795,263.836z"/>
						</g>
					</g>
				</g>
				<g>
					<path style="opacity:0.7;fill:#E0682B;" d="M71.795,332.916L71.795,332.916c0,1.983,1.607,3.59,3.59,3.59h275.9v-3.59H71.795z"
						/>
				</g>
			</g>
			<path style="fill:#FFEF51;" d="M439.455,263.206v70.34c0,3.31-2.68,6-6,6h-76.46l-26.3-26.3c-8.22-8.21-8.22-21.53,0-29.75
				l26.29-26.29h76.47C436.775,257.206,439.455,259.896,439.455,263.206z"/>
			<path style="fill:#B0343F;" d="M439.455,263.206v70.34c0,3.31-2.68,6-6,6h-72.46l-26.3-26.3c-8.22-8.21-8.22-21.53,0-29.75
				l26.29-26.29h72.47C436.775,257.206,439.455,259.896,439.455,263.206z"/>
			<g>
				<g>
					<path style="fill:#F3BD36;" d="M398.295,277.179L398.295,277.179c-5.686,0-10.296,4.61-10.296,10.296v4.156h3.977v-3.955
						c0-2.988,1.984-5.724,4.902-6.364c4.099-0.899,7.74,2.215,7.74,6.167v0.175h3.977v-0.175
						C408.594,281.79,403.983,277.179,398.295,277.179z"/>
				</g>
				<path style="fill:#F3BD36;" d="M401.957,291.631h-23.861c-0.942,0-1.706,0.764-1.706,1.706v19.196
					c0,0.942,0.764,1.706,1.706,1.706h23.865c0.942,0,1.706-0.764,1.706-1.706v-19.192
					C403.667,292.396,402.902,291.631,401.957,291.631z M392.091,303.478v4.048c0,1.138-0.922,2.06-2.06,2.06h-0.004
					c-1.138,0-2.06-0.922-2.06-2.06v-4.048c-1.136-0.79-1.801-2.221-1.47-3.771c0.284-1.332,1.355-2.423,2.683-2.726
					c2.366-0.54,4.466,1.243,4.466,3.522C393.646,301.736,393.029,302.825,392.091,303.478z"/>
			</g>
			<path style="fill:#E0682B;" d="M435.405,261.296c-0.65-0.65-1.55-1.05-2.54-1.05h-72.42l-3.59,3.59h76.01v72.67
				c1.983,0,3.59-1.607,3.59-3.59v-69.08C436.455,262.846,436.055,261.946,435.405,261.296z"/>
		</g>
	</g>
	<g>
		<path style="fill:#C9C5BD;" d="M431.205,166.454v70.34c0,3.31-2.68,6-6,6H66.545c-3.32,0-6-2.69-6-6v-70.34c0-3.31,2.68-6,6-6
			h358.66C428.525,160.454,431.205,163.144,431.205,166.454z"/>
		<g>
			<g>
				<g>
					<path style="fill:#B0343F;" d="M439.455,158.204v70.34c0,3.31-2.68,6-6,6H74.795c-3.32,0-6-2.69-6-6v-70.34c0-3.31,2.68-6,6-6
						h358.66C436.775,152.204,439.455,154.894,439.455,158.204z"/>
					<path style="fill:#8C2930;" d="M71.795,227.874v3.59h361.07c1.983,0,3.59-1.607,3.59-3.59l0,0h-82.16v-69h-2.84v69H71.795z"/>
					<g>
						<path style="fill:#E0682B;" d="M71.795,158.794L71.795,158.794h276.83v69.08h2.83v-69.08h85l0,0c0-1.983-1.607-3.59-3.59-3.59
							H75.385C73.402,155.204,71.795,156.812,71.795,158.794z"/>
					</g>
				</g>
				<path style="fill:#F3BD36;" d="M351.285,152.204v82.34H74.795c-3.32,0-6-2.69-6-6v-70.34c0-3.31,2.68-6,6-6H351.285z"/>
				<g>
					<path style="fill:#FFEF51;" d="M71.795,158.794L71.795,158.794h276.83v69.08h2.66v-72.67h-275.9
						C73.402,155.204,71.795,156.812,71.795,158.794z"/>
					<path style="opacity:0.7;fill:#E0682B;" d="M71.795,227.874L71.795,227.874c0,1.983,1.607,3.59,3.59,3.59h275.9v-3.59H71.795z"
						/>
				</g>
			</g>
		</g>
		<g>
			<g>
				<polygon style="fill:#8C2930;" points="387.533,207.148 394.4,207.148 394.4,209.501 385.18,209.501 385.18,198.257 
					387.533,198.257 				"/>
				<polygon style="fill:#8C2930;" points="387.533,186.492 385.18,186.492 385.18,175.248 394.4,175.248 394.4,177.601 
					387.533,177.601 				"/>
				<polygon style="fill:#8C2930;" points="413.731,209.501 396.777,211.877 396.777,209.501 396.777,207.148 396.777,177.601 
					396.777,175.248 396.777,172.872 413.731,175.248 				"/>
				<path style="fill:#8C2930;" d="M375.254,192.174l7.067-7.067c0.233,0.096,0.25,0.104,0.482,0.2v3.561h2.377h2.353h6.867v7.012
					h-6.867h-2.353h-2.377v3.561c-0.233,0.096-0.25,0.104-0.482,0.2l-7.067-7.067C375.254,192.419,375.254,192.33,375.254,192.174z"
					/>
			</g>
			<g>
				<polygon style="fill:#F3BD36;" points="385.533,209.148 392.4,209.148 392.4,211.501 383.18,211.501 383.18,200.257 
					385.533,200.257 				"/>
				<polygon style="fill:#F3BD36;" points="385.533,188.492 383.18,188.492 383.18,177.248 392.4,177.248 392.4,179.601 
					385.533,179.601 				"/>
				<polygon style="fill:#F3BD36;" points="411.731,211.501 394.777,213.877 394.777,211.501 394.777,209.148 394.777,179.601 
					394.777,177.248 394.777,174.872 411.731,177.248 				"/>
				<path style="fill:#F3BD36;" d="M373.254,194.174l7.067-7.067c0.233,0.096,0.25,0.104,0.482,0.2v3.561h2.377h2.353h6.867v7.012
					h-6.867h-2.353h-2.377v3.561c-0.233,0.096-0.25,0.104-0.482,0.2l-7.067-7.067C373.254,194.419,373.254,194.33,373.254,194.174z"
					/>
			</g>
		</g>
	</g>
	<g>
		<path style="fill:#C9C5BD;" d="M431.205,61.453v70.34c0,3.31-2.68,6-6,6H66.545c-3.32,0-6-2.69-6-6v-70.34c0-3.31,2.68-6,6-6
			h358.66C428.525,55.453,431.205,58.143,431.205,61.453z"/>
		<g>
			<g>
				<g>
					<path style="fill:#B0343F;" d="M439.455,53.203v70.34c0,3.31-2.68,6-6,6H74.795c-3.32,0-6-2.69-6-6v-70.34c0-3.31,2.68-6,6-6
						h358.66C436.775,47.203,439.455,49.893,439.455,53.203z"/>
					<path style="fill:#8C2930;" d="M71.795,122.873v3.59h361.07c1.983,0,3.59-1.607,3.59-3.59l0,0h-82.16v-69h-2.84v69H71.795z"/>
					<g>
						<path style="fill:#E0682B;" d="M71.795,53.793L71.795,53.793h276.83v69.08h2.83v-69.08h85l0,0c0-1.983-1.607-3.59-3.59-3.59
							H75.385C73.402,50.203,71.795,51.811,71.795,53.793z"/>
					</g>
				</g>
				<path style="fill:#F3BD36;" d="M351.285,47.203v82.34H74.795c-3.32,0-6-2.69-6-6v-70.34c0-3.31,2.68-6,6-6H351.285z"/>
				<g>
					<polygon style="fill:#FFEF51;" points="71.795,50.203 71.795,53.793 348.625,53.793 348.625,122.873 351.285,122.873 
						351.285,50.203 					"/>
					<path style="opacity:0.7;fill:#E0682B;" d="M71.795,122.873L71.795,122.873c0,1.983,1.607,3.59,3.59,3.59h275.9v-3.59H71.795z"
						/>
				</g>
			</g>
		</g>
		<g>
			<g>
				<polygon style="fill:#8C2930;" points="386.127,102.147 392.994,102.147 392.994,104.5 383.774,104.5 383.774,93.256 
					386.127,93.256 				"/>
				<polygon style="fill:#8C2930;" points="386.127,81.491 383.774,81.491 383.774,70.247 392.994,70.247 392.994,72.6 
					386.127,72.6 				"/>
				<polygon style="fill:#8C2930;" points="412.324,104.5 395.371,106.876 395.371,104.5 395.371,102.147 395.371,72.6 
					395.371,70.247 395.371,67.87 412.324,70.247 				"/>
				<path style="fill:#8C2930;" d="M393.807,87.173l-7.067-7.067c-0.233,0.096-0.25,0.104-0.482,0.2v3.561h-2.377h-2.353h-6.867
					v7.012h6.867h2.353h2.377v3.561c0.233,0.096,0.25,0.104,0.482,0.2l7.067-7.067C393.807,87.418,393.807,87.329,393.807,87.173z"
					/>
			</g>
			<g>
				<polygon style="fill:#F3BD36;" points="384.127,104.147 390.994,104.147 390.994,106.5 381.774,106.5 381.774,95.256 
					384.127,95.256 				"/>
				<polygon style="fill:#F3BD36;" points="384.127,83.491 381.774,83.491 381.774,72.247 390.994,72.247 390.994,74.6 
					384.127,74.6 				"/>
				<polygon style="fill:#F3BD36;" points="410.324,106.5 393.371,108.876 393.371,106.5 393.371,104.147 393.371,74.6 
					393.371,72.247 393.371,69.87 410.324,72.247 				"/>
				<path style="fill:#F3BD36;" d="M395.807,89.173l-7.067-7.067c-0.233,0.096-0.25,0.104-0.482,0.2v3.561h-2.377h-2.353h-6.867
					v7.012h6.867h2.353h2.377v3.561c0.233,0.096,0.25,0.104,0.482,0.2l7.067-7.067C395.807,89.418,395.807,89.329,395.807,89.173z"
					/>
			</g>
		</g>
	</g>
</g>
<g id="TEXTS">
	<g>
		<g>
			<g>
				<g>
					<g>
						
							<text transform="matrix(1 0 0 1 139.1003 415.6255)" style="fill:#FFEF51; font-family:'Roboto-Black'; font-size:35.3524px;">LOG OUT</text>
					</g>
				</g>
			</g>
			<g>
				<g>
					<text transform="matrix(1 0 0 1 137.3604 416.8842)" style="fill:#8C2930; font-family:'Roboto-Black'; font-size:35.3524px;">LOG OUT</text>
				</g>
			</g>
		</g>
	</g>
	<g>
		<g>
			<g>
				<g>
					<g>
						
							<text transform="matrix(1 0 0 1 155.6282 310.0407)" style="fill:#FFEF51; font-family:'Roboto-Black'; font-size:35.3524px;">LOG IN</text>
					</g>
				</g>
			</g>
			<g>
				<g>
					<text transform="matrix(1 0 0 1 153.8882 311.2995)" style="fill:#8C2930; font-family:'Roboto-Black'; font-size:35.3524px;">LOG IN</text>
				</g>
			</g>
		</g>
	</g>
	<g>
		<g>
			<g>
				<g>
					<g>
						
							<text transform="matrix(1 0 0 1 139.1003 205.0397)" style="fill:#FFEF51; font-family:'Roboto-Black'; font-size:35.3524px;">LOG OUT</text>
					</g>
				</g>
			</g>
			<g>
				<g>
					<text transform="matrix(1 0 0 1 137.3604 206.2985)" style="fill:#8C2930; font-family:'Roboto-Black'; font-size:35.3524px;">LOG OUT</text>
				</g>
			</g>
		</g>
	</g>
	<g>
		<g>
			<g>
				<g>
					<g>
						
							<text transform="matrix(1 0 0 1 155.6282 100.0387)" style="fill:#FFEF51; font-family:'Roboto-Black'; font-size:35.3524px;">LOG IN</text>
					</g>
				</g>
			</g>
			<g>
				<g>
					<text transform="matrix(1 0 0 1 153.8882 101.2975)" style="fill:#8C2930; font-family:'Roboto-Black'; font-size:35.3524px;">LOG IN</text>
				</g>
			</g>
		</g>
	</g>
</g>
</svg>
